<?xml version="1.0" encoding="utf-8"?>
<!-- Generator: Adobe Illustrator 26.0.1, SVG Export Plug-In . SVG Version: 6.00 Build 0)  -->
<svg version="1.1" id="Layer_1" xmlns:svgjs="http://svgjs.com/svgjs"
	 xmlns="http://www.w3.org/2000/svg" xmlns:xlink="http://www.w3.org/1999/xlink"  width="1920" height="1080" viewBox="0 0 1920 1080"
	 style="enable-background:new 0 0 1920 1080;" xml:space="preserve">
<g mask="url(&quot;#SvgjsMask1924&quot;)" fill="none">
<rect width="1920" height="1080" x="0" y="0" fill="url(#SvgjsLinearGradient1925)">
</rect>
<path class="triangle-float1" fill="rgba(28, 83, 142, 0.4)" d="M1520.39,947.9l-62.61-181.84-181.85,62.61,62.62,181.85Z"/>
<path class="triangle-float1" fill="rgba(28, 83, 142, 0.4)" d="M1549.49,850.7l117.45-12.34-129.79-105.1Z"/>
<path class="triangle-float3" fill="rgba(28, 83, 142, 0.4)" d="M1647.81,772.83l-53-56.85L1536,823.92Z"/>
<path class="triangle-float2" fill="rgba(28, 83, 142, 0.4)" d="M1406-101.14l-113.7,182,182,113.7,113.7-182Z"/>
<path class="triangle-float1" fill="rgba(28, 83, 142, 0.4)" d="M1712.34,208.15l-121.69-70.26-70.26,121.69,121.69,70.26Z"/>
<path class="triangle-float1" fill="rgba(28, 83, 142, 0.4)" d="M1104.86,225.62c46.09.32,90.78-19.54,114.77-58.89,25-41,24.84-91.54,3-134.23-24.12-47-64.92-87.26-117.73-89.62-56.46-2.53-112.07,27.73-137.51,78.19-23.53,46.68-3.69,100.7,25.48,144.08,25.37,37.75,66.55,60.16,112,60.47"/></g>
<defs>
<mask id="SvgjsMask1924">
<rect width="1920" height="1080" fill="#ffffff"></rect>
</mask>
<linearGradient x1="15.28%" y1="-39.29%" x2="84.72%" y2="139.29%" gradientUnits="userSpaceOnUse" id="SvgjsLinearGradient1925">
<stop stop-color="rgba(234, 222, 76, 0.29)" offset="0"></stop>
<stop stop-color="rgba(129, 193, 36, 1)" offset="1"></stop>
</linearGradient>
<style type="text/css">
	@keyframes float1 {
                0%{transform: translate(0, 0)}
                50%{transform: translate(-10px, 0)}
                100%{transform: translate(0, 0)}
            }

            .triangle-float1 {
                animation: float1 5s infinite;
            }

            @keyframes float2 {
                0%{transform: translate(0, 0)}
                50%{transform: translate(-5px, -5px)}
                100%{transform: translate(0, 0)}
            }

            .triangle-float2 {
                animation: float2 4s infinite;
            }

            @keyframes float3 {
                0%{transform: translate(0, 0)}
                50%{transform: translate(0, -0px)}
                100%{transform: translate(0, 0)}
            }

            .triangle-float3 {
                animation: float3 6s infinite;
            }
</style>

</defs></svg>
