<svg xmlns="http://www.w3.org/2000/svg" viewBox="0 0 1286.99 178.97"><defs><style>.cls-1{fill:#fff;stroke:#231f20;stroke-miterlimit:10;}</style></defs><g id="Layer_2" data-name="Layer 2"><g id="Layer_1-2" data-name="Layer 1"><path class="cls-1" d="M402.78,59.46,329.22,75.59,322,42.72,395.58,26.6ZM330.41,73.72l70.51-15.45-6.54-29.81-70.5,15.46Z"/><path class="cls-1" d="M989.25,153.88,915.68,170l-7.2-32.87L982.05,121Zm-72.37,14.26,70.51-15.45-6.54-29.81-70.51,15.46Z"/><path class="cls-1" d="M81.37,162.25,7.8,178.38.6,145.51l73.56-16.12ZM9,176.51,79.5,161.06,73,131.25,2.46,146.71Z"/><path class="cls-1" d="M331.62,155.89l-70.78-25.75,11.5-31.62,70.78,25.75Zm-68.77-26.68,67.83,24.67,10.43-28.67-67.83-24.68Z"/><path class="cls-1" d="M82.53,99.11,10,78.69,19.16,46.3l72.5,20.42ZM12,77.6,81.45,97.17,89.72,67.8,20.25,48.23Z"/><path class="cls-1" d="M199.84,116.09,125.32,127l-4.86-33.29L195,82.79Zm-73.2,9.1,71.43-10.43-4.41-30.19L122.23,95Z"/><path class="cls-1" d="M708.45,83.17H633.14V49.53h75.31ZM634.7,81.61h72.19V51.09H634.7Z"/><path class="cls-1" d="M761.2,149.07l-74.92-7.65L689.69,108l74.93,7.64ZM688,140l71.81,7.33L762.9,117l-71.81-7.32Z"/><path class="cls-1" d="M1074.2,69.69l71,25L1156.42,63l-71-25Zm70.08,23-68.08-24L1086.35,40l68.07,24Z"/><path class="cls-1" d="M1209.51,77.48l75.22,3.9,1.74-33.6-75.21-3.9Zm73.73,2.25L1211.16,76l1.58-30.47,72.08,3.73Z"/><path class="cls-1" d="M1184.13,159.49l74.83-8.55-3.82-33.43-74.83,8.55Zm73.09-9.93-71.71,8.19-3.46-30.31,71.71-8.2Z"/><path class="cls-1" d="M1011.66,115.45l71,25,11.19-31.73-71-25Zm70.07,23-68.07-24,10.14-28.78,68.08,24Z"/><path class="cls-1" d="M559.15,30.68,492,64.74l-15.21-30L543.94.67Zm-66.48,32L557.05,30,543.25,2.78,478.87,35.41Z"/><path class="cls-1" d="M505.3,111.46l-67.17,34.05-15.22-30,67.18-34Zm-66.48,32,64.38-32.64L489.4,83.56,425,116.19Z"/><path class="cls-1" d="M578.75,129.51h75.31V95.86H578.75Zm73.75-1.57H580.32V97.43H652.5Z"/><path class="cls-1" d="M946,97.45l-74.6-10.4L876,53.73l74.59,10.4ZM873.16,85.71l71.49,10,4.21-30.22-71.49-10Z"/><path class="cls-1" d="M857.35,130.28l-74.6-10.41,4.65-33.32L862,97Zm-72.83-11.74,71.49,10,4.22-30.22-71.49-10Z"/></g></g></svg>
