<svg xmlns="http://www.w3.org/2000/svg" viewBox="0 0 101.71 102.13"><defs><style>.cls-1{fill:#fff;}</style></defs><g id="Layer_2" data-name="Layer 2"><g id="Layer_1-2" data-name="Layer 1"><path class="cls-1" d="M0,45V93.82a8.31,8.31,0,0,0,8.31,8.31H33.83a1.73,1.73,0,0,0,1.74-1.73V69.13A8.42,8.42,0,0,1,44,60.71H57.94a8.86,8.86,0,0,1,8.86,8.86V99.91A2.21,2.21,0,0,0,69,102.13H93.31a8.4,8.4,0,0,0,8.4-8.4V43.28a10.51,10.51,0,0,0-4-8.27L54.36,1.21a5.69,5.69,0,0,0-7,0L5.4,33.94A14,14,0,0,0,0,45Z"/></g></g></svg>